# xmcd
#
# Track frame offsets: 
#        150
#        18175
#        50141
#        67872
#        84861
#        103661
#        127153
#        146698
#        165335
#        183785
#        206642
#        224501
#
# Disc length: 3494 seconds
#
# Revision: 0
# Processed by: cddbd v1.5.2PL0 Copyright (c) Steve Scherf et al.
# Submitted via: ExactAudioCopy v1.0b3
#
DISCID=a50da40c
DTITLE=Rob Berry - High Street Blues
DYEAR=1900
DGENRE=Blues
TTITLE0=Parchman Farm
TTITLE1=Comfortably Numb
TTITLE2=Going Down
TTITLE3=Route 66
TTITLE4=Born Under A Bad Sign
TTITLE5=Voodoo Chile (Slide Return)
TTITLE6=The Thrill Is Gone
TTITLE7=Honey Hush
TTITLE8=Boom Boom
TTITLE9=Voodoo Chile
TTITLE10=The Sky is Crying
TTITLE11=All Along The Watchtower (Live 2000)
EXTD=
EXTT0=
EXTT1=
EXTT2=
EXTT3=
EXTT4=
EXTT5=
EXTT6=
EXTT7=
EXTT8=
EXTT9=
EXTT10=
EXTT11=
PLAYORDER=
